<svg width="138" height="138" viewBox="0 0 138 138" fill="none" xmlns="http://www.w3.org/2000/svg">
<path opacity="0.61" d="M69 137.5C106.832 137.5 137.5 106.832 137.5 69C137.5 31.1685 106.832 0.5 69 0.5C31.1685 0.5 0.5 31.1685 0.5 69C0.5 106.832 31.1685 137.5 69 137.5Z" stroke="#F9A807" stroke-dasharray="8 8"/>
<path opacity="0.61" d="M69 129.5C102.413 129.5 129.5 102.413 129.5 69C129.5 35.5868 102.413 8.5 69 8.5C35.5868 8.5 8.5 35.5868 8.5 69C8.5 102.413 35.5868 129.5 69 129.5Z" fill="#1E2630"/>
<path d="M40.75 99.56C40.75 99.56 62.69 128.64 97.65 103.45" stroke="#FAA706"/>
</svg>
